<?xml version="1.0" encoding="UTF-8"?>
<svg id="Layer_1" xmlns="http://www.w3.org/2000/svg" version="1.1" viewBox="0 0 392.49 83.02">
  <!-- Generator: Adobe Illustrator 30.3.0, SVG Export Plug-In . SVG Version: 2.1.3 Build 182)  -->
  <defs>
    <style>
      .st0 {
        fill: #673de6;
      }
    </style>
  </defs>
  <g>
    <polygon class="st0" points="27.09 81.97 2.89 81.97 2.89 50.28 27.09 25.94 27.09 81.97"/>
    <polygon class="st0" points="89.13 25.92 27.09 25.92 51.29 1.05 89.13 1.05 89.13 25.92"/>
    <polygon class="st0" points="37.76 36.81 44.3 63.1 64.13 43.85 37.76 36.81"/>
  </g>
  <path d="M128.32,17.86c-1.79,0-2.69.9-2.69,2.69v12.11h13.12v10.54h-13.12v36.46h-12.11v-36.46h-10.99v-10.54h10.99v-13.57c0-4.04.95-7.01,2.86-8.91s4.88-2.86,8.91-2.86h13.46v10.54h-10.43Z"/>
  <path d="M158.83,79.66c-4.04,0-7.01-.95-8.91-2.86-1.91-1.91-2.86-4.88-2.86-8.91V7.32h12.11v59c0,1.79.9,2.69,2.69,2.69h7.06v10.65h-10.09Z"/>
  <path d="M201.04,79.6c-5.76,0-10.78-1.27-15.08-3.81-4.3-2.54-7.64-6.09-10.04-10.65-2.39-4.56-3.59-9.9-3.59-16.03s1.19-11.47,3.59-16.03c2.39-4.56,5.74-8.11,10.04-10.65,4.3-2.54,9.33-3.81,15.08-3.81s10.76,1.27,15.03,3.81c4.26,2.54,7.59,6.09,9.98,10.65,2.39,4.56,3.59,9.91,3.59,16.03s-1.2,11.48-3.59,16.03c-2.39,4.56-5.72,8.11-9.98,10.65-4.26,2.54-9.27,3.81-15.03,3.81ZM201.04,68.39c4.86,0,8.78-1.78,11.77-5.33,2.99-3.55,4.49-8.2,4.49-13.96s-1.5-10.39-4.49-13.9c-2.99-3.51-6.92-5.27-11.77-5.27s-8.9,1.76-11.89,5.27c-2.99,3.51-4.49,8.15-4.49,13.9s1.49,10.41,4.49,13.96c2.99,3.55,6.95,5.33,11.89,5.33Z"/>
  <path d="M260.23,18.6c7.33,0,13.02,2.04,17.1,6.11,4.07,4.08,6.11,9.74,6.11,16.99v36.33h-11.55v-8.75h-1.23c-1.87,3.29-4.47,5.83-7.79,7.63-3.33,1.79-7.2,2.69-11.61,2.69-5.23,0-9.38-1.35-12.45-4.04-3.07-2.69-4.6-6.54-4.6-11.55,0-6.58,2.93-11.51,8.8-14.8,5.87-3.29,15.31-5.01,28.31-5.16v-2.24c0-3.96-1.07-7.1-3.2-9.42-2.13-2.32-5.07-3.48-8.8-3.48-3.21,0-5.93.84-8.13,2.52-2.21,1.68-3.5,4.06-3.87,7.12h-12c.97-6.43,3.72-11.36,8.24-14.8,4.52-3.44,10.07-5.16,16.65-5.16ZM255.63,69.96c4.86,0,8.69-1.61,11.49-4.82,2.8-3.21,4.2-7.55,4.2-13.01v-1.12c-8.82.08-15.29,1.03-19.4,2.86-4.11,1.83-6.17,4.62-6.17,8.35,0,2.47.86,4.37,2.58,5.72,1.72,1.35,4.15,2.02,7.29,2.02Z"/>
  <path class="st0" d="M375.48,79.73l-16.59-23.55h-1.47l-16.79,23.55h-14.22l22.29-30.74-21.99-30.49h13.92l16.79,23.63h1.18l16.89-23.63h13.83l-21.99,30.41,22.29,30.82h-14.12Z"/>
  <path d="M323.19,21.92h-12.61V7.33h-12.01v14.59h-11.11v10.55h11v35.47c0,4.04.95,7.01,2.86,8.92,1.91,1.91,4.88,2.86,8.92,2.86h13.47v-10.66h-10.44c-1.8,0-2.69-.9-2.69-2.69v-31.07l-7.54-2.82h27.71l-7.55-10.55Z"/>
</svg>